<mxfile host="app.diagrams.net" modified="2023-05-21T22:28:56.836Z" agent="Mozilla/5.0 (Windows NT 10.0; Win64; x64) AppleWebKit/537.36 (KHTML, like Gecko) Chrome/113.0.0.0 Safari/537.36" etag="AjFuq8FasvDVclc2SkgL" version="21.3.2" type="device">
  <diagram name="Page-1" id="S_oW-FT5qrZAHNR8oyFD">
    <mxGraphModel dx="1050" dy="590" grid="1" gridSize="10" guides="1" tooltips="1" connect="1" arrows="1" fold="1" page="1" pageScale="1" pageWidth="827" pageHeight="1169" math="0" shadow="0">
      <root>
        <mxCell id="0" />
        <mxCell id="1" parent="0" />
        <mxCell id="oaB-d0zjqJKBvMiq6FWH-5" value="" style="rounded=0;whiteSpace=wrap;html=1;" vertex="1" parent="1">
          <mxGeometry x="80" y="130" width="640" height="470" as="geometry" />
        </mxCell>
        <mxCell id="oaB-d0zjqJKBvMiq6FWH-23" style="edgeStyle=orthogonalEdgeStyle;rounded=0;orthogonalLoop=1;jettySize=auto;html=1;exitX=0.5;exitY=0;exitDx=0;exitDy=0;entryX=0.5;entryY=1;entryDx=0;entryDy=0;entryPerimeter=0;" edge="1" parent="1" source="oaB-d0zjqJKBvMiq6FWH-11" target="oaB-d0zjqJKBvMiq6FWH-21">
          <mxGeometry relative="1" as="geometry" />
        </mxCell>
        <mxCell id="oaB-d0zjqJKBvMiq6FWH-11" value="" style="rounded=0;whiteSpace=wrap;html=1;" vertex="1" parent="1">
          <mxGeometry x="250" y="190" width="390" height="300" as="geometry" />
        </mxCell>
        <mxCell id="oaB-d0zjqJKBvMiq6FWH-21" value="" style="outlineConnect=0;dashed=0;verticalLabelPosition=bottom;verticalAlign=top;align=center;html=1;shape=mxgraph.aws3.classic_load_balancer;fillColor=#F58534;gradientColor=none;" vertex="1" parent="1">
          <mxGeometry x="410" y="11" width="69" height="72" as="geometry" />
        </mxCell>
        <mxCell id="oaB-d0zjqJKBvMiq6FWH-25" value="" style="sketch=0;points=[[0,0,0],[0.25,0,0],[0.5,0,0],[0.75,0,0],[1,0,0],[0,1,0],[0.25,1,0],[0.5,1,0],[0.75,1,0],[1,1,0],[0,0.25,0],[0,0.5,0],[0,0.75,0],[1,0.25,0],[1,0.5,0],[1,0.75,0]];outlineConnect=0;fontColor=#232F3E;gradientColor=#4D72F3;gradientDirection=north;fillColor=#3334B9;strokeColor=#ffffff;dashed=0;verticalLabelPosition=bottom;verticalAlign=top;align=center;html=1;fontSize=12;fontStyle=0;aspect=fixed;shape=mxgraph.aws4.resourceIcon;resIcon=mxgraph.aws4.documentdb_with_mongodb_compatibility;" vertex="1" parent="1">
          <mxGeometry x="406" y="510" width="78" height="78" as="geometry" />
        </mxCell>
        <mxCell id="oaB-d0zjqJKBvMiq6FWH-28" style="edgeStyle=orthogonalEdgeStyle;rounded=0;orthogonalLoop=1;jettySize=auto;html=1;exitX=0.98;exitY=0.51;exitDx=0;exitDy=0;exitPerimeter=0;" edge="1" parent="1" source="oaB-d0zjqJKBvMiq6FWH-27" target="oaB-d0zjqJKBvMiq6FWH-21">
          <mxGeometry relative="1" as="geometry" />
        </mxCell>
        <mxCell id="oaB-d0zjqJKBvMiq6FWH-27" value="" style="points=[[0.35,0,0],[0.98,0.51,0],[1,0.71,0],[0.67,1,0],[0,0.795,0],[0,0.65,0]];verticalLabelPosition=bottom;sketch=0;html=1;verticalAlign=top;aspect=fixed;align=center;pointerEvents=1;shape=mxgraph.cisco19.user;fillColor=#005073;strokeColor=none;" vertex="1" parent="1">
          <mxGeometry x="180" y="22" width="50" height="50" as="geometry" />
        </mxCell>
        <mxCell id="oaB-d0zjqJKBvMiq6FWH-31" value="&lt;font style=&quot;font-size: 20px;&quot;&gt;VPC&lt;/font&gt;" style="text;html=1;strokeColor=none;fillColor=none;align=center;verticalAlign=middle;whiteSpace=wrap;rounded=0;" vertex="1" parent="1">
          <mxGeometry x="95.5" y="150" width="60" height="30" as="geometry" />
        </mxCell>
        <mxCell id="oaB-d0zjqJKBvMiq6FWH-34" value="" style="rounded=1;whiteSpace=wrap;html=1;" vertex="1" parent="1">
          <mxGeometry x="310" y="350" width="250" height="113" as="geometry" />
        </mxCell>
        <mxCell id="oaB-d0zjqJKBvMiq6FWH-32" value="" style="outlineConnect=0;dashed=0;verticalLabelPosition=bottom;verticalAlign=top;align=center;html=1;shape=mxgraph.aws3.ec2;fillColor=#F58534;gradientColor=none;" vertex="1" parent="1">
          <mxGeometry x="130" y="519.25" width="53.5" height="59.5" as="geometry" />
        </mxCell>
        <mxCell id="oaB-d0zjqJKBvMiq6FWH-35" value="" style="rounded=1;whiteSpace=wrap;html=1;" vertex="1" parent="1">
          <mxGeometry x="350" y="205" width="184" height="80" as="geometry" />
        </mxCell>
        <mxCell id="oaB-d0zjqJKBvMiq6FWH-37" value="" style="outlineConnect=0;dashed=0;verticalLabelPosition=bottom;verticalAlign=top;align=center;html=1;shape=mxgraph.aws3.ec2;fillColor=#F58534;gradientColor=none;" vertex="1" parent="1">
          <mxGeometry x="424.13" y="235" width="35.74" height="39.75" as="geometry" />
        </mxCell>
        <mxCell id="oaB-d0zjqJKBvMiq6FWH-41" value="&lt;span style=&quot;&quot;&gt;MASTER&lt;/span&gt;" style="text;html=1;strokeColor=none;fillColor=none;align=center;verticalAlign=middle;whiteSpace=wrap;rounded=0;" vertex="1" parent="1">
          <mxGeometry x="424.13" y="208" width="42.87" height="20" as="geometry" />
        </mxCell>
        <mxCell id="oaB-d0zjqJKBvMiq6FWH-42" value="&lt;span style=&quot;&quot;&gt;NODEGROUP&lt;/span&gt;" style="text;html=1;strokeColor=none;fillColor=none;align=center;verticalAlign=middle;whiteSpace=wrap;rounded=0;" vertex="1" parent="1">
          <mxGeometry x="410" y="355" width="42.87" height="20" as="geometry" />
        </mxCell>
        <mxCell id="oaB-d0zjqJKBvMiq6FWH-44" value="EKS CLUSTER" style="text;html=1;strokeColor=none;fillColor=none;align=center;verticalAlign=middle;whiteSpace=wrap;rounded=0;" vertex="1" parent="1">
          <mxGeometry x="267.13" y="205" width="42.87" height="20" as="geometry" />
        </mxCell>
        <mxCell id="oaB-d0zjqJKBvMiq6FWH-48" value="" style="outlineConnect=0;dashed=0;verticalLabelPosition=bottom;verticalAlign=top;align=center;html=1;shape=mxgraph.aws3.instances;fillColor=#F58534;gradientColor=none;" vertex="1" parent="1">
          <mxGeometry x="407" y="388.25" width="60" height="63" as="geometry" />
        </mxCell>
        <mxCell id="oaB-d0zjqJKBvMiq6FWH-50" value="&lt;font style=&quot;font-size: 12px;&quot;&gt;JENKINS&lt;/font&gt;" style="text;html=1;strokeColor=none;fillColor=none;align=center;verticalAlign=middle;whiteSpace=wrap;rounded=0;" vertex="1" parent="1">
          <mxGeometry x="123.5" y="486.25" width="60" height="30" as="geometry" />
        </mxCell>
        <mxCell id="oaB-d0zjqJKBvMiq6FWH-51" value="&lt;span style=&quot;&quot;&gt;MONGODB&lt;/span&gt;" style="text;html=1;strokeColor=none;fillColor=none;align=center;verticalAlign=middle;whiteSpace=wrap;rounded=0;" vertex="1" parent="1">
          <mxGeometry x="500" y="522.25" width="60" height="30" as="geometry" />
        </mxCell>
      </root>
    </mxGraphModel>
  </diagram>
</mxfile>
